<svg width="720" height="900" viewBox="0 0 720 900" fill="none" xmlns="http://www.w3.org/2000/svg">
<g clip-path="url(#clip0_916_40459)" filter="url(#filter0_d_916_40459)">
<rect width="720" height="900" fill="#2B378D" fill-opacity="0.98"/>
<rect width="720" height="1" transform="matrix(1 0 0 -1 0 900)" fill="#2B378D" fill-opacity="0.98"/>
<circle opacity="0.05" cx="522" cy="403" r="224" stroke="white" stroke-width="3"/>
<circle opacity="0.05" cx="540" cy="421" r="224" stroke="white" stroke-width="3"/>
<circle opacity="0.05" cx="558" cy="439" r="224" stroke="white" stroke-width="3"/>
<circle opacity="0.05" cx="576" cy="457" r="224" stroke="white" stroke-width="3"/>
<circle opacity="0.05" cx="594" cy="475" r="224" stroke="white" stroke-width="3"/>
<circle opacity="0.05" cx="612" cy="493" r="224" stroke="white" stroke-width="3"/>
<circle opacity="0.05" cx="630" cy="511" r="224" stroke="white" stroke-width="3"/>
<circle opacity="0.05" cx="648" cy="529" r="224" stroke="white" stroke-width="3"/>
<circle opacity="0.05" cx="666" cy="547" r="224" stroke="white" stroke-width="3"/>
<circle opacity="0.05" cx="684" cy="565" r="224" stroke="white" stroke-width="3"/>
<circle opacity="0.05" cx="702" cy="583" r="224" stroke="white" stroke-width="3"/>
<circle opacity="0.05" cx="720" cy="601" r="224" stroke="white" stroke-width="3"/>
<circle opacity="0.05" cx="738" cy="619" r="224" stroke="white" stroke-width="3"/>
<circle opacity="0.05" cx="756" cy="637" r="224" stroke="white" stroke-width="3"/>
<circle opacity="0.05" cx="774" cy="655" r="224" stroke="white" stroke-width="3"/>
<circle opacity="0.05" cx="792" cy="673" r="224" stroke="white" stroke-width="3"/>
<circle opacity="0.05" cx="810" cy="691" r="224" stroke="white" stroke-width="3"/>
<circle opacity="0.05" cx="105" cy="912" r="148" transform="rotate(90 105 912)" stroke="white" stroke-width="3"/>
<circle opacity="0.05" cx="93" cy="924" r="148" transform="rotate(90 93 924)" stroke="white" stroke-width="3"/>
<circle opacity="0.05" cx="82" cy="935" r="148" transform="rotate(90 82 935)" stroke="white" stroke-width="3"/>
<circle opacity="0.05" cx="69" cy="948" r="148" transform="rotate(90 69 948)" stroke="white" stroke-width="3"/>
<circle opacity="0.05" cx="57" cy="960" r="148" transform="rotate(90 57 960)" stroke="white" stroke-width="3"/>
<circle opacity="0.05" cx="46" cy="971" r="148" transform="rotate(90 46 971)" stroke="white" stroke-width="3"/>
<circle opacity="0.05" cx="34" cy="983" r="148" transform="rotate(90 34 983)" stroke="white" stroke-width="3"/>
<circle opacity="0.05" cx="22" cy="995" r="148" transform="rotate(90 22 995)" stroke="white" stroke-width="3"/>
<circle opacity="0.05" cx="9.99999" cy="1007" r="148" transform="rotate(90 9.99999 1007)" stroke="white" stroke-width="3"/>
<circle opacity="0.05" cx="-2.00001" cy="1019" r="148" transform="rotate(90 -2.00001 1019)" stroke="white" stroke-width="3"/>
<circle opacity="0.05" cx="-14" cy="1031" r="148" transform="rotate(90 -14 1031)" stroke="white" stroke-width="3"/>
<circle opacity="0.05" cx="-26" cy="1043" r="148" transform="rotate(90 -26 1043)" stroke="white" stroke-width="3"/>
</g>
<defs>
<filter id="filter0_d_916_40459" x="-22" y="-10" width="764" height="944" filterUnits="userSpaceOnUse" color-interpolation-filters="sRGB">
<feFlood flood-opacity="0" result="BackgroundImageFix"/>
<feColorMatrix in="SourceAlpha" type="matrix" values="0 0 0 0 0 0 0 0 0 0 0 0 0 0 0 0 0 0 127 0" result="hardAlpha"/>
<feMorphology radius="2" operator="erode" in="SourceAlpha" result="effect1_dropShadow_916_40459"/>
<feOffset dy="12"/>
<feGaussianBlur stdDeviation="12"/>
<feComposite in2="hardAlpha" operator="out"/>
<feColorMatrix type="matrix" values="0 0 0 0 0 0 0 0 0 0 0 0 0 0 0 0 0 0 0.17 0"/>
<feBlend mode="normal" in2="BackgroundImageFix" result="effect1_dropShadow_916_40459"/>
<feBlend mode="normal" in="SourceGraphic" in2="effect1_dropShadow_916_40459" result="shape"/>
</filter>
<clipPath id="clip0_916_40459">
<rect width="720" height="900" fill="white"/>
</clipPath>
</defs>
</svg>
